HIERARCHY
ROOT Hips
{
	OFFSET 0.00 0.00 0.00
	CHANNELS 6 Xposition Yposition Zposition Xrotation Yrotation Zrotation
	JOINT Spine
	{
		OFFSET 0.00000 0.84964 1.27446
		CHANNELS 3 Xrotation Yrotation Zrotation
		JOINT Spine1
		{
			OFFSET 0.00000 0.29508 1.67346
			CHANNELS 3 Xrotation Yrotation Zrotation
			JOINT Spine2
			{
				OFFSET 0.00000 0.14810 1.69281
				CHANNELS 3 Xrotation Yrotation Zrotation
				JOINT Spine3
				{
					OFFSET 0.00000 0.00000 1.69928
					CHANNELS 3 Xrotation Yrotation Zrotation
					JOINT Neck
					{
						OFFSET 0.00000 -0.63723 4.46061
						CHANNELS 3 Xrotation Yrotation Zrotation
						JOINT Head
						{
							OFFSET 0.00000 -0.40573 2.30101
							CHANNELS 3 Xrotation Yrotation Zrotation
							End Site
							{
								OFFSET 0.00000 0.00000 2.75071
							}
						}
					}
					JOINT RightShoulder
					{
						OFFSET -0.72014 -1.20022 3.88874
						CHANNELS 3 Xrotation Yrotation Zrotation
						JOINT RightArm
						{
							OFFSET -3.57668 0.00000 0.00000
							CHANNELS 3 Xrotation Yrotation Zrotation
							JOINT RightForeArm
							{
								OFFSET -5.92485 0.00000 0.00000
								CHANNELS 3 Xrotation Yrotation Zrotation
								JOINT RightHand
								{
									OFFSET -6.63013 0.00000 0.00000
									CHANNELS 3 Xrotation Yrotation Zrotation
									JOINT RightHandEnd
									{
										OFFSET -1.65321 0.00000 0.00000
										CHANNELS 3 Xrotation Yrotation Zrotation
										End Site
										{
											OFFSET -1.65321 0.00000 0.00000
										}
									}
									JOINT RightHandThumb1
									{
										OFFSET -0.66129 -1.10214 -0.44086
										CHANNELS 3 Yrotation Xrotation Zrotation
										End Site
										{
											OFFSET -1.59688 -0.42788 0.00000
										}
									}
								}
							}
						}
					}
					JOINT LeftShoulder
					{
						OFFSET 0.72014 -1.20022 3.88874
						CHANNELS 3 Xrotation Yrotation Zrotation
						JOINT LeftArm
						{
							OFFSET 3.57668 0.00000 0.00000
							CHANNELS 3 Xrotation Yrotation Zrotation
							JOINT LeftForeArm
							{
								OFFSET 5.92485 0.00000 0.00000
								CHANNELS 3 Xrotation Yrotation Zrotation
								JOINT LeftHand
								{
									OFFSET 6.63013 0.00000 0.00000
									CHANNELS 3 Xrotation Yrotation Zrotation
									JOINT LeftHandEnd
									{
										OFFSET 1.65321 0.00000 0.00000
										CHANNELS 3 Xrotation Yrotation Zrotation
										End Site
										{
											OFFSET 1.65321 0.00000 0.00000
										}
									}
									JOINT LeftHandThumb1
									{
										OFFSET 0.66129 -1.10214 -0.44086
										CHANNELS 3 Yrotation Xrotation Zrotation
										End Site
										{
											OFFSET 1.59688 -0.42788 0.00000
										}
									}
								}
							}
						}
					}
				}
			}
		}
	}
	JOINT RightUpLeg
	{
		OFFSET -2.13640 0.00000 -0.62412
		CHANNELS 3 Xrotation Yrotation Zrotation
		JOINT RightLeg
		{
			OFFSET 0.00000 0.00000 -11.49360
			CHANNELS 3 Xrotation Yrotation Zrotation
			JOINT RightFoot
			{
				OFFSET 0.00000 0.00000 -8.79036
				CHANNELS 3 Xrotation Yrotation Zrotation
				JOINT RightToeBase
				{
					OFFSET 0.00000 -3.94625 -1.43632
					CHANNELS 3 Xrotation Yrotation Zrotation
					End Site
					{
						OFFSET 0.00000 -1.72833 -0.00000
					}
				}
			}
		}
	}
	JOINT LeftUpLeg
	{
		OFFSET 2.13640 0.00000 -0.62412
		CHANNELS 3 Xrotation Yrotation Zrotation
		JOINT LeftLeg
		{
			OFFSET 0.00000 0.00000 -11.49360
			CHANNELS 3 Xrotation Yrotation Zrotation
			JOINT LeftFoot
			{
				OFFSET 0.00000 0.00000 -8.79036
				CHANNELS 3 Xrotation Yrotation Zrotation
				JOINT LeftToeBase
				{
					OFFSET 0.00000 -3.94625 -1.43632
					CHANNELS 3 Xrotation Yrotation Zrotation
					End Site
					{
						OFFSET 0.00000 -1.72833 -0.00000
					}
				}
			}
		}
	}
}
MOTION
Frames: 10
Frame Time: 0.04
 0.4334 -1.7726 23.6190 -0.1400 -0.8713 176.4629 -4.4006 -5.3700 0.2085 -1.3917 -2.9609 -0.3330 7.7403 -0.5884 9.6476 1.5143 6.0757 -0.6543 -9.2442 8.8930 0.7379 3.3401 -0.7185 -9.5452 -7.0023 -2.7427 8.3739 -64.0208 -31.7758 -28.9212 -0.0000 0.0001 85.4160 35.8581 53.9276 -8.1479 0.0000 0.0000 -0.0000 0.0000 0.0000 -0.0000 -1.8131 19.8756 4.2994 -1.4275 65.4248 3.9524 -0.0000 -0.0000 -12.6469 -6.5105 -18.8006 15.6013 0.0000 -0.0000 -0.0000 -0.0000 -0.0000 0.0000 3.0878 2.7677 -48.2915 -4.4272 0.0000 -0.0000 20.7557 -14.7341 44.4522 -29.8518 0.0000 -0.0000 4.3689 -3.3677 18.4133 -6.4781 0.0000 -0.0000 -0.9999 -4.8596 -19.1750 -4.5768 0.0000 -0.0000
 0.4831 -1.7625 23.6188 -0.3590 -0.9854 176.2494 -4.5723 -5.4965 0.2840 -1.4000 -3.1266 -0.3354 7.8444 -0.5176 10.2942 1.6055 6.3739 -0.6880 -9.3273 8.2850 -0.3052 3.8135 -0.4809 -11.8418 -7.8142 -1.9862 8.9429 -57.5203 -33.4400 -23.4742 -0.0000 0.0001 88.6614 41.4417 57.5401 -6.8232 -0.0000 -0.0000 -0.0000 -0.0000 -0.0000 0.0000 -2.1263 19.8496 4.5021 -1.4613 62.8550 4.6356 -0.0000 -0.0000 -13.9111 -5.8680 -19.1786 15.6357 0.0000 0.0000 0.0000 -0.0000 -0.0000 0.0000 2.8818 2.5239 -47.8468 -4.4214 0.0000 -0.0000 20.6010 -14.7160 44.1987 -29.7613 0.0000 -0.0000 4.2050 -3.6253 18.4730 -6.4328 0.0000 -0.0000 -1.0289 -4.8724 -18.9956 -4.5446 0.0000 -0.0000
 0.5291 -1.7412 23.6185 -0.3251 -1.0843 176.5196 -4.6316 -5.4732 0.3145 -1.3681 -3.1690 -0.3350 7.9966 -0.4446 10.4959 1.5895 6.5607 -0.7316 -9.4365 7.0340 -1.1538 4.0086 -0.0682 -13.2792 -7.3286 -0.9506 9.6203 -41.1685 -30.4969 -12.6036 -0.0000 0.0001 91.0696 49.4992 59.0022 -3.8352 -0.0000 0.0000 -0.0000 -0.0000 -0.0000 -0.0000 -2.3872 20.4399 4.5425 5.1304 58.7143 -0.6465 -0.0000 -0.0000 -15.3130 -5.1093 -19.9185 15.2318 0.0000 0.0000 0.0000 0.0000 -0.0000 0.0000 3.0295 2.3086 -47.6880 -4.3846 0.0000 -0.0000 20.3084 -14.7922 43.7749 -29.6959 0.0000 -0.0000 4.2281 -3.8573 18.5090 -6.3593 0.0000 -0.0000 -1.0905 -4.8395 -19.2668 -4.5630 0.0000 -0.0000
 0.5693 -1.7190 23.6174 -0.0522 -1.1305 177.2613 -4.5579 -5.5729 0.2528 -1.3527 -3.1706 -0.3552 8.2160 -0.0725 10.3676 1.5216 6.9665 -0.8746 -9.4524 5.1461 -1.6446 3.7217 0.2507 -13.5396 -5.7609 -0.1404 10.3984 -24.9778 -22.2805 -2.9459 -0.0000 0.0001 92.2182 64.8745 60.8846 -7.7462 -0.0000 -0.0000 -0.0000 0.0000 0.0000 0.0000 -2.2372 20.7451 4.0751 11.5317 54.5462 -5.8139 -0.0000 -0.0000 -16.4233 -4.3043 -21.1075 14.7269 -0.0000 0.0000 -0.0000 0.0000 0.0000 0.0000 3.4865 2.1430 -48.0170 -4.3543 0.0000 -0.0000 19.9818 -14.9110 43.3641 -29.6942 0.0000 -0.0000 4.3834 -4.0372 18.3694 -6.2361 0.0000 -0.0000 -1.1642 -4.7597 -19.8328 -4.5870 0.0000 -0.0000
 0.6191 -1.7105 23.6168 0.2305 -1.1685 178.0442 -4.2708 -5.9246 0.1805 -1.3024 -3.2898 -0.3832 8.2309 0.7310 10.6370 1.3605 7.6664 -1.0659 -9.2833 3.1848 -1.8456 3.1809 0.1213 -13.2554 -2.9713 -0.2091 11.3495 -16.7362 -12.7957 2.0985 -0.0000 0.0001 91.2904 85.3454 64.9176 -16.3687 -0.0000 -0.0000 0.0000 0.0000 0.0000 0.0000 -1.6772 20.3075 3.1054 14.0455 51.3848 -8.1233 -0.0000 -0.0000 -17.1139 -3.6967 -21.7362 14.4765 0.0000 -0.0000 0.0000 -0.0000 -0.0000 -0.0000 3.9026 1.9536 -48.5676 -4.2874 0.0000 -0.0000 19.6959 -14.9619 43.1167 -29.7111 0.0000 -0.0000 4.4562 -4.2645 18.0972 -6.0021 0.0000 -0.0000 -1.2469 -4.6863 -20.3183 -4.6037 0.0000 -0.0000
 0.6814 -1.7212 23.6184 0.4077 -1.2469 178.6900 -3.6579 -6.2903 0.1922 -1.1353 -3.4543 -0.3678 7.7832 1.5758 11.4551 1.0614 8.3259 -1.1601 -9.0078 1.7816 -1.9420 2.6721 -0.3738 -13.1220 -0.8238 -0.4839 12.0664 -17.4566 -10.2297 3.6108 -0.0000 0.0001 88.9695 99.5829 69.4378 -27.1903 -0.0000 -0.0000 -0.0000 -0.0000 -0.0000 -0.0000 -1.1579 19.8047 2.1189 13.5393 49.1303 -8.4123 -0.0000 -0.0000 -17.6443 -3.4963 -21.3177 14.4399 -0.0000 0.0000 -0.0000 0.0000 -0.0000 0.0000 4.1256 1.6880 -49.0405 -4.2003 0.0000 -0.0000 19.4530 -14.9366 42.9359 -29.6978 0.0000 -0.0000 4.3724 -4.5771 17.8435 -5.7222 0.0000 -0.0000 -1.2945 -4.6461 -20.6976 -4.6393 0.0000 -0.0000
 0.7437 -1.7488 23.6200 0.5140 -1.3714 179.4128 -2.8848 -6.3127 0.2803 -0.9177 -3.5113 -0.3282 7.1121 1.9700 12.0770 0.6584 8.6484 -1.1303 -8.7433 1.0040 -2.0380 2.2680 -0.8243 -13.1356 -1.2547 -0.6306 12.3267 -24.6226 -17.4270 2.3581 -0.0000 0.0001 86.6388 86.4546 72.0147 -23.7438 -0.0000 0.0000 -0.0000 0.0000 0.0000 -0.0000 -0.9361 19.7740 1.4383 11.5332 47.7706 -7.5401 -0.0000 -0.0000 -18.5754 -3.4920 -20.8813 14.3842 0.0000 -0.0000 0.0000 -0.0000 -0.0000 0.0000 4.2443 1.3516 -49.4692 -4.1541 0.0000 -0.0000 19.2277 -14.9080 42.6569 -29.6777 0.0000 -0.0000 4.2223 -4.9138 17.6817 -5.6285 0.0000 -0.0000 -1.2128 -4.6293 -21.2441 -4.6886 0.0000 -0.0000
 0.7947 -1.7902 23.6181 0.5460 -1.5338 -179.7600 -2.3490 -6.0704 0.3588 -0.8013 -3.4485 -0.3063 6.7418 1.8640 12.0439 0.3332 8.5684 -1.0469 -8.6277 0.8930 -2.0239 1.9783 -0.9997 -13.1155 -3.9643 -0.5625 12.2429 -34.9481 -29.2340 -2.4864 -0.0000 0.0001 86.8127 48.6824 67.3990 -4.3664 0.0000 -0.0000 -0.0000 0.0000 0.0000 0.0000 -0.8773 20.0190 0.7915 8.3182 47.6810 -5.3655 -0.0000 -0.0000 -20.1959 -3.5115 -20.8387 14.1080 -0.0000 0.0000 -0.0000 0.0000 0.0000 0.0000 4.2679 0.9905 -49.9301 -4.1465 0.0000 -0.0000 19.0373 -14.8999 42.3105 -29.6860 0.0000 -0.0000 4.0769 -5.2113 17.5859 -5.8917 0.0000 -0.0000 -0.9448 -4.6424 -21.9495 -4.7310 0.0000 -0.0000
 0.8275 -1.8401 23.6133 0.3695 -1.7143 -179.1812 -2.3895 -5.9103 0.4012 -0.8390 -3.4052 -0.3027 6.9407 1.6059 11.8382 0.2553 8.3409 -0.9594 -8.7960 1.2022 -1.9149 1.9230 -0.8641 -13.0787 -6.6722 -0.6480 12.0975 -44.2173 -37.8796 -8.0338 -0.0000 0.0001 87.1786 29.3397 61.7125 1.8977 0.0000 -0.0000 0.0000 -0.0000 0.0000 -0.0000 -0.9494 19.9252 -0.0430 5.0082 48.9226 -2.8314 -0.0000 -0.0000 -21.9583 -3.6255 -20.7608 13.7109 0.0000 0.0000 0.0000 0.0000 -0.0000 0.0000 4.0196 0.6874 -50.2766 -4.1401 0.0000 -0.0000 18.9615 -14.8674 42.0764 -29.6999 0.0000 -0.0000 3.8330 -5.4358 17.5214 -6.3722 0.0000 -0.0000 -0.5667 -4.6976 -22.4406 -4.7867 0.0000 -0.0000
 0.8312 -1.8842 23.6106 0.1670 -1.8118 -179.0240 -2.7290 -5.9108 0.4362 -0.9578 -3.4363 -0.3055 7.4759 1.4393 11.9463 0.3884 8.1738 -0.8690 -9.2068 1.4757 -1.8602 2.1867 -0.4975 -13.0282 -7.8101 -0.8898 12.1443 -42.3501 -39.8225 -6.2382 -0.0000 0.0001 85.3242 30.3137 61.6519 2.5819 -0.0000 -0.0000 -0.0000 -0.0000 -0.0000 0.0000 -1.3505 19.3932 -0.6611 4.0929 51.0245 -2.2344 -0.0000 -0.0000 -23.0935 -3.7868 -20.5750 13.4608 0.0000 0.0000 0.0000 0.0000 -0.0000 0.0000 3.7216 0.5674 -50.3799 -4.1763 0.0000 -0.0000 19.0465 -14.8293 42.0102 -29.6898 0.0000 -0.0000 3.6318 -5.4962 17.4916 -6.7601 0.0000 -0.0000 -0.2418 -4.7558 -22.5636 -4.8720 0.0000 -0.0000
